<svg width="260" height="180" viewBox="0 0 260 180" fill="none" xmlns="http://www.w3.org/2000/svg">
<rect width="260" height="180" rx="25" fill="white" fill-opacity="0.1"/>
<rect x="80" y="40" width="100" height="100" rx="50" fill="white" fill-opacity="0.45"/>
<path d="M135.663 72.91L133.925 74.6481L117.948 90.6231C116.866 91.7068 116.324 92.2487 115.859 92.845C115.311 93.549 114.84 94.3103 114.455 95.1156C114.131 95.7981 113.889 96.5256 113.405 97.9768L111.354 104.129L110.851 105.632C110.734 105.983 110.716 106.359 110.801 106.719C110.886 107.079 111.069 107.408 111.33 107.67C111.592 107.931 111.921 108.114 112.281 108.199C112.641 108.284 113.017 108.266 113.368 108.149L114.871 107.646L121.023 105.595C122.476 105.111 123.202 104.869 123.884 104.545C124.693 104.16 125.45 103.692 126.155 103.141C126.751 102.676 127.293 102.134 128.375 101.052L144.352 85.075L146.09 83.3368C147.473 81.9541 148.25 80.0788 148.25 78.1234C148.25 76.168 147.473 74.2927 146.09 72.91C144.707 71.5273 142.832 70.7505 140.877 70.7505C138.921 70.7505 137.046 71.5273 135.663 72.91Z" stroke="black" stroke-width="3"/>
<path opacity="0.5" d="M133.925 74.6462C133.925 74.6462 134.143 78.34 137.401 81.5987C140.66 84.8575 144.352 85.0731 144.352 85.0731M114.871 107.646L111.354 104.129" stroke="black" stroke-width="3"/>
</svg>
