<svg width="18" height="18" viewBox="0 0 18 18" fill="none" xmlns="http://www.w3.org/2000/svg">
  <path d="M7.03603 4.69801C5.38503 6.55901 3.51303 9.24401 1.89503 12.482C1.77635 12.7194 1.56823 12.8999 1.31646 12.9838C1.06469 13.0677 0.7899 13.0482 0.552531 12.9295C0.315162 12.8108 0.134663 12.6027 0.0507401 12.3509C-0.0331824 12.0992 -0.0136535 11.8244 0.105031 11.587C1.79703 8.20401 3.76503 5.37201 5.53903 3.37101C6.42503 2.37201 7.27903 1.56101 8.04503 0.991009C8.42703 0.706009 8.80503 0.468009 9.16803 0.298009C9.51903 0.132009 9.92103 8.70378e-06 10.334 8.70378e-06C10.566 -0.000860153 10.7935 0.0633376 10.9908 0.185309C11.188 0.30728 11.3472 0.482135 11.45 0.690009C11.607 1.00201 11.624 1.33501 11.62 1.56001C11.612 2.03701 11.485 2.63301 11.322 3.24001C10.987 4.48301 10.399 6.13101 9.81503 7.75801L9.73303 7.98601C9.16703 9.56001 8.61003 11.109 8.24803 12.346C8.1507 12.68 8.07103 12.9783 8.00903 13.241C8.70303 12.684 9.55903 11.845 10.466 10.953L10.496 10.924C11.377 10.058 12.31 9.14201 13.096 8.51301C13.487 8.20101 13.908 7.90401 14.314 7.73301C14.654 7.58801 15.434 7.35301 16.041 7.96001C16.425 8.34401 16.531 8.84401 16.559 9.21601C16.589 9.60601 16.543 10.026 16.472 10.426C16.332 11.226 16.048 12.159 15.789 13.001L15.748 13.136C15.516 13.887 15.31 14.558 15.193 15.096C15.453 14.836 15.773 14.422 16.147 13.811C16.2156 13.699 16.3057 13.6016 16.4119 13.5244C16.5182 13.4471 16.6386 13.3916 16.7663 13.3609C16.8941 13.3302 17.0266 13.325 17.1563 13.3455C17.2861 13.366 17.4105 13.4119 17.5225 13.4805C17.6345 13.5491 17.732 13.6391 17.8092 13.7454C17.8864 13.8517 17.942 13.9721 17.9727 14.0998C18.0033 14.2275 18.0086 14.3601 17.9881 14.4898C17.9675 14.6196 17.9216 14.744 17.853 14.856C17.31 15.742 16.748 16.462 16.152 16.909C15.528 17.377 14.712 17.641 13.886 17.228C13.278 16.923 13.14 16.318 13.109 15.982C13.076 15.619 13.129 15.223 13.198 14.867C13.328 14.194 13.583 13.37 13.823 12.591L13.878 12.413C14.145 11.545 14.388 10.734 14.503 10.079L14.527 9.93401L14.346 10.074C13.648 10.633 12.785 11.479 11.868 12.38L11.838 12.41C10.957 13.275 10.024 14.192 9.23803 14.82C8.84703 15.133 8.42603 15.43 8.02003 15.601C7.68003 15.746 6.90003 15.981 6.29303 15.374C5.98403 15.065 5.90503 14.675 5.88003 14.438C5.85685 14.1703 5.86457 13.9009 5.90303 13.635C5.97103 13.107 6.12903 12.465 6.32903 11.785C6.70903 10.487 7.28403 8.88501 7.84103 7.33601L7.93303 7.08101C8.52603 5.42901 9.08203 3.86701 9.39003 2.72101L9.46403 2.43501C9.38832 2.48687 9.31364 2.54021 9.24003 2.59501C8.61703 3.05901 7.86303 3.76501 7.03603 4.69801Z" fill="black" />
</svg>